<svg width="128" height="128" viewBox="0 0 128 128" fill="none" xmlns="http://www.w3.org/2000/svg">
<path fill-rule="evenodd" clip-rule="evenodd" d="M109.972 8.94238L123.136 29.3145H123.159C129.982 39.8486 123.94 54.4707 111.189 56.1328C110.27 56.2451 109.351 56.3125 108.409 56.3125C102.413 56.3125 97.1062 53.752 93.4304 49.7988C89.7776 53.752 84.4706 56.3125 78.4515 56.3125C72.4553 56.3125 67.1254 53.752 63.4725 49.7988C59.8197 53.752 54.4898 56.3125 48.4936 56.3125C42.4974 56.3125 37.1675 53.752 33.5147 49.7988C29.8618 53.752 24.5319 56.3125 18.5357 56.3125C17.6168 56.3125 16.6748 56.2451 15.7559 56.1328C3.05134 54.4482 -2.9678 39.8262 3.83245 29.3145L17.0194 8.94238C18.1911 7.12305 20.2817 6 22.5102 6H104.481C106.709 6 108.8 7.12305 109.972 8.94238ZM57.6297 92.25H26.7374V62.2871C24.1643 63.0732 21.4074 63.5 18.5587 63.5C17.2951 63.5 16.0316 63.4102 14.8139 63.2529H14.791C13.849 63.1182 12.9301 62.9609 12.0341 62.7363V106.625C12.0341 114.554 18.6276 121 26.7374 121H82.8379C69.3545 114.788 60.0059 103.862 57.6297 92.25Z" fill="#407BFF"/>
<path fill-rule="evenodd" clip-rule="evenodd" d="M77.7711 89.9664C82.1397 98.3969 89.1777 105.278 97.7629 109.598L104.437 103.044C105.256 102.24 106.469 101.972 107.531 102.329C110.929 103.431 114.599 104.027 118.361 104.027C120.03 104.027 121.395 105.368 121.395 107.006V117.403C121.395 119.041 120.03 120.382 118.361 120.382C89.8754 120.382 66.7896 97.7118 66.7896 69.7391C66.7896 68.1007 68.1547 66.7601 69.8231 66.7601H80.4408C82.1094 66.7601 83.4745 68.1007 83.4745 69.7391C83.4745 73.4628 84.0811 77.0375 85.2037 80.374C85.5374 81.4166 85.2946 82.5785 84.4452 83.4126L77.7711 89.9664ZM118.847 68.8156L116.693 66.7303L97.1258 85.4978V72.7181H94.0921V90.592H112.294V87.613H99.7044L118.847 68.8156Z" fill="#FF6B55"/>
</svg>
